<?xml version="1.0" standalone="no"?><!DOCTYPE svg PUBLIC "-//W3C//DTD SVG 1.1//EN" "http://www.w3.org/Graphics/SVG/1.1/DTD/svg11.dtd"><svg t="1612149900492" class="icon" viewBox="0 0 1024 1024" version="1.1" xmlns="http://www.w3.org/2000/svg" p-id="1415" width="128" height="128" xmlns:xlink="http://www.w3.org/1999/xlink"><defs><style type="text/css"></style></defs><path d="M687.2 721.6c50.5-62.9-42.9-237.8 0-304.7 14.3-22.2 84.9-46.4 84.2-71.7-2.1-80.8-185.1-220.5-280.1-218.3-95.4 2.3-271.2 152.1-265.9 233.2 1.9 29.7 89 50.6 107.9 75.7 45.4 60.2-41.8 232.3 14.1 285.8 0 0 34.4 24.3-45.4 66.8s-3.1 106.4 62.6 66.5 79.8-69.2 79.8-82.5-7.6 59.9 5.5 79.8c14.9 22.6 71.9 35.3 87.6-12.6 14.4-44.2 18.8-72.3 12.5-82.5-6.3-10.2 11.1 95.1 52.4 111.1 34.4 13.3 97-4.7 61-81.8s-18 51.9 64.1 68.5c62.7 12.7 164.6-19.2 25-71.9-86.4-32.5-65.3-61.4-65.3-61.4z" fill="#9ECAD0" p-id="1416"></path><path d="M493.5 877.1c-19 0-38.9-9-47.6-22.2-6.8-10.3-8.8-33.8-8.7-53.8-10.9 14.9-31.6 34.4-70.2 57.9-31.9 19.4-63.9 14.5-81.5 4.4-14.3-8.2-22.4-20.6-22.2-34.1 0.2-16.5 13.2-32.5 36.6-45 42.4-22.6 49.7-38.9 50.2-46.6 0.6-7.8-5.1-12.1-5.4-12.3-31.3-29.9-21.4-91.8-11.8-151.7 8.5-53 17.3-107.8-3.3-135.1-7.4-9.8-27.9-19.7-47.7-29.4-30.8-14.9-59.8-29.1-61.1-48.8-1.9-29.5 18.5-69.2 57.5-111.9 54.9-60.1 148.3-124.8 213-126.3 99.3-2 282.8 141.3 284.9 222.9 0.4 17.4-23.1 31.7-48 46.8-15.5 9.4-31.5 19.1-36.9 27.5-19.8 30.9-8.5 89 2.5 145.2 12.1 61.7 24.5 125.6-2.6 159.7-0.4 0.6-2.5 4.5-0.5 10.7 2.7 8.3 14.5 25.1 63.8 43.7 53.2 20.1 77.5 39.4 72.3 57.6-6.9 23.8-64.5 30.4-99.9 23.3-19.4-3.9-35.3-13.7-48-25.6-1.3 12.2-6.3 20.8-11.8 26.7-16.7 17.9-46.6 19.5-66.1 12-22.8-8.8-38.6-42-47.6-70.7-2.6 11.2-6.3 24.3-11.1 39.2-6.6 20.3-21.1 32.9-40.9 35.5-2.8 0.3-5.4 0.4-7.9 0.4z m-45.9-95.6c-1.3 18-1.9 55.9 6.2 68.2 6.9 10.5 26.3 20.2 46 17.6 11.3-1.5 26.3-7.8 33.2-29.1 8.9-27.3 13-45.3 14.4-57.3-2.5-11-3.6-19.7-3.4-23.3 0.3-4.1 2.6-5.3 4-5.7 0.8-0.2 3.8-0.6 5.9 2.8 3.2 5.1 4.1 13.6 2.9 25.4 6.7 28.4 22.9 74.3 47.2 83.7 16.7 6.5 41.9 5.3 55.9-9.6 7.1-7.5 10.2-17.7 9.5-30-19.1-22.3-28.2-48.2-28.4-58.6-0.1-6.2 3.1-7.8 5-8.2 4-0.9 9.2 0.4 21.6 27 6.5 13.9 9.8 25.7 10.9 35.7 11.3 12.6 27.8 25.7 49.9 30.2 37.2 7.5 84.6-1.3 89.1-16.7 1.3-4.5 0.3-21-66.6-46.2-40.8-15.4-64.2-32.3-69.5-50.1-3.2-10.8 1.5-17.8 2.1-18.5l0.1-0.2c24.6-30.7 12.5-92.4 0.9-152.2-11.8-60.7-23-118-1.2-152.1 6.6-10.3 22.8-20.1 39.9-30.5 20.5-12.5 43.8-26.6 43.5-38.5-2-76.1-181.9-216.1-275.3-213.7-54.5 1.4-143.2 54.4-206.3 123.3-36.7 40.2-56.8 78.4-55 104.9 0.9 14.3 30.1 28.5 55.9 41 21.8 10.6 42.4 20.6 51.1 32.2 23 30.5 14.3 84.8 5.1 142.2-9.2 57.5-18.8 116.9 8.5 143 0.1 0 9.6 7 8.8 19.9-1.1 17.1-19.6 35.5-55.2 54.4-20.2 10.8-31.4 23.9-31.6 36.8-0.1 9.9 6.2 19.3 17.5 25.8 15.4 8.8 43.6 13 72-4.2 56.6-34.4 72-59.1 76.1-71.1 0.6-6.4 1.4-10.8 2.3-11.8l2.1-2.6 3.2 1.1c3.3 1.1 3.3 4.4 3.3 6-0.1 2.2-0.4 5.2-1.6 9z m204.8-6.3c2 6.6 5.8 15.7 11.9 25.9-1.4-4.1-3.2-8.3-5.2-12.6-2.7-5.9-4.9-10.2-6.7-13.3z" fill="#001613" p-id="1417"></path><path d="M687.2 721.6c50.5-62.9-42.9-237.8 0-304.7 14.3-22.2 84.9-46.4 84.2-71.7-2.1-80.8-185.1-220.5-280.1-218.3-95.4 2.3-271.2 152.1-265.9 233.2 1.9 29.7 89 50.6 107.9 75.7 45.4 60.2-41.8 232.3 14.1 285.8 0 0 34.4 24.3-45.4 66.8s-3.1 106.4 62.6 66.5 79.8-69.2 79.8-82.5-7.6 59.9 5.5 79.8c14.9 22.6 71.9 35.3 87.6-12.6 14.4-44.2 18.8-72.3 12.5-82.5-6.3-10.2 11.1 95.1 52.4 111.1 34.4 13.3 97-4.7 61-81.8s-18 51.9 64.1 68.5c62.7 12.7 164.6-19.2 25-71.9-86.4-32.5-65.3-61.4-65.3-61.4z" fill="#9ECAD0" p-id="1418"></path><path d="M493.5 877.1c-19 0-38.9-9-47.6-22.2-6.8-10.3-8.8-33.8-8.7-53.8-10.9 14.9-31.6 34.4-70.2 57.9-31.9 19.4-63.9 14.5-81.5 4.4-14.3-8.2-22.4-20.6-22.2-34.1 0.2-16.5 13.2-32.5 36.6-45 42.4-22.6 49.7-38.9 50.2-46.6 0.6-7.8-5.1-12.1-5.4-12.3-31.3-29.9-21.4-91.8-11.8-151.7 8.5-53 17.3-107.8-3.3-135.1-7.4-9.8-27.9-19.7-47.7-29.4-30.8-14.9-59.8-29.1-61.1-48.8-1.9-29.5 18.5-69.2 57.5-111.9 54.9-60.1 148.3-124.8 213-126.3 99.3-2 282.8 141.3 284.9 222.9 0.4 17.4-23.1 31.7-48 46.8-15.5 9.4-31.5 19.1-36.9 27.5-19.8 30.9-8.5 89 2.5 145.2 12.1 61.7 24.5 125.6-2.6 159.7-0.4 0.6-2.5 4.5-0.5 10.7 2.7 8.3 14.5 25.1 63.8 43.7 53.2 20.1 77.5 39.4 72.3 57.6-6.9 23.8-64.5 30.4-99.9 23.3-19.4-3.9-35.3-13.7-48-25.6-1.3 12.2-6.3 20.8-11.8 26.7-16.7 17.9-46.6 19.5-66.1 12-22.8-8.8-38.6-42-47.6-70.7-2.6 11.2-6.3 24.3-11.1 39.2-6.6 20.3-21.1 32.9-40.9 35.5-2.8 0.3-5.4 0.4-7.9 0.4z m-45.9-95.6c-1.3 18-1.9 55.9 6.2 68.2 6.9 10.5 26.3 20.2 46 17.6 11.3-1.5 26.3-7.8 33.2-29.1 8.9-27.3 13-45.3 14.4-57.3-2.5-11-3.6-19.7-3.4-23.3 0.3-4.1 2.6-5.3 4-5.7 0.8-0.2 3.8-0.6 5.9 2.8 3.2 5.1 4.1 13.6 2.9 25.4 6.7 28.4 22.9 74.3 47.2 83.7 16.7 6.5 41.9 5.3 55.9-9.6 7.1-7.5 10.2-17.7 9.5-30-19.1-22.3-28.2-48.2-28.4-58.6-0.1-6.2 3.1-7.8 5-8.2 4-0.9 9.2 0.4 21.6 27 6.5 13.9 9.8 25.7 10.9 35.7 11.3 12.6 27.8 25.7 49.9 30.2 37.2 7.5 84.6-1.3 89.1-16.7 1.3-4.5 0.3-21-66.6-46.2-40.8-15.4-64.2-32.3-69.5-50.1-3.2-10.8 1.5-17.8 2.1-18.5l0.1-0.2c24.6-30.7 12.5-92.4 0.9-152.2-11.8-60.7-23-118-1.2-152.1 6.6-10.3 22.8-20.1 39.9-30.5 20.5-12.5 43.8-26.6 43.5-38.5-2-76.1-181.9-216.1-275.3-213.7-54.5 1.4-143.2 54.4-206.3 123.3-36.7 40.2-56.8 78.4-55 104.9 0.9 14.3 30.1 28.5 55.9 41 21.8 10.6 42.4 20.6 51.1 32.2 23 30.5 14.3 84.8 5.1 142.2-9.2 57.5-18.8 116.9 8.5 143 0.1 0 9.6 7 8.8 19.9-1.1 17.1-19.6 35.5-55.2 54.4-20.2 10.8-31.4 23.9-31.6 36.8-0.1 9.9 6.2 19.3 17.5 25.8 15.4 8.8 43.6 13 72-4.2 56.6-34.4 72-59.1 76.1-71.1 0.6-6.4 1.4-10.8 2.3-11.8l2.1-2.6 3.2 1.1c3.3 1.1 3.3 4.4 3.3 6-0.1 2.2-0.4 5.2-1.6 9z m204.8-6.3c2 6.6 5.8 15.7 11.9 25.9-1.4-4.1-3.2-8.3-5.2-12.6-2.7-5.9-4.9-10.2-6.7-13.3z" fill="#001613" p-id="1419"></path><path d="M815.1 837.4c-13.8 14.5-51.1 20.7-84.1 14-21.7-4.4-38.9-16.6-51.7-30.8 37.5 11.2 98.6 30.9 135.8 16.8zM374.7 483.5s-16 186-0.8 211.8c15.3 25.8-11.6 83.9-26.5 87.1-14.8 3.1-79 48.8-43.1 73.8 3.5 2.4 6.8 4.6 9.9 6.6-41.9-6.4-64.6-41.3-7.4-71.8 79.8-42.6 45-73.3 45-73.3-56-53.6 31.2-225.7-14.2-285.8-18.9-25.1-106-46-107.9-75.7-4.3-64.8 113.8-168.3 207.4-210.6C395.4 187.8 329 249 325.2 285.8c-7.6 75.1 27.2 96.6 45.2 104.5 18 7.8 4.3 93.2 4.3 93.2z" fill="#F3FFFF" p-id="1420"></path><path d="M328 207.8l173.1 135 175 140.6" fill="#FFFFFF" p-id="1421"></path><path d="M676.1 488.1c-1 0-2.1-0.3-2.9-1l-175-140.6-173.1-135c-2-1.6-2.4-4.5-0.8-6.6 1.6-2.1 4.5-2.4 6.6-0.8l173.2 135 175.1 140.6c2 1.6 2.3 4.6 0.7 6.6-1 1.2-2.4 1.8-3.8 1.8z" fill="#231815" p-id="1422"></path><path d="M562.7 376.4m-51 0a51 51 0 1 0 102 0 51 51 0 1 0-102 0Z" p-id="1423"></path><path d="M562.7 432.1c-30.7 0-55.7-25-55.7-55.7s25-55.7 55.7-55.7c30.7 0 55.7 25 55.7 55.7s-25 55.7-55.7 55.7z m0-102c-25.6 0-46.3 20.8-46.3 46.3s20.8 46.3 46.3 46.3S609 402 609 376.4s-20.8-46.3-46.3-46.3zM443.6 381.1h-61c-2.6 0-4.7-2.1-4.7-4.7s2.1-4.7 4.7-4.7h61c2.6 0 4.7 2.1 4.7 4.7s-2.1 4.7-4.7 4.7zM532.5 600.9h-61c-2.6 0-4.7-2.1-4.7-4.7s2.1-4.7 4.7-4.7h61c2.6 0 4.7 2.1 4.7 4.7s-2.1 4.7-4.7 4.7z" fill="#231815" p-id="1424"></path><path d="M511.7 504.4c-2.6 0-4.7-2.1-4.7-4.7v-24.3c0-2.6 2.1-4.7 4.7-4.7s4.7 2.1 4.7 4.7v24.3c-0.1 2.6-2.1 4.7-4.7 4.7z" fill="#231815" p-id="1425"></path><path d="M816.1 837.4c-17.2-6.9 8.8-12.6-15.6-22-55-21.4-161.7-51.6-145.5-84 29.7-60-1.6-144.9-9.4-238.7-7.9-93.7 17.2-89.2 17.2-93.9s46-3.5 65.7-73.4c8-28.4-29.9-75.3-76.3-123.9 63.3 44.2 113.2 101.6 114.4 143.8 0.7 25.2-69.9 49.5-84.3 71.6-42.9 66.9 50.5 241.8 0 304.7 0 0-21 28.9 65.4 61.5 59.7 22.5 75.2 41.3 68.4 54.3z" fill="#02B1B5" p-id="1426"></path><path d="M514.1 862.7c-18.5 10.5-49.6 3.7-58.9-10.5-9.2-13.9-8.6-53.5-7.2-71.8 0-0.1 0.1-0.2 0.1-0.3 13.5 31.4-15.1 65.7 66 82.6zM663.9 850.2c-12.5 17.3-41.2 21.6-59.3 14.5-26.6-10.2-40.5-53.8-47.2-83.4 23.7 26.4 46.1 85.2 106.5 68.9z" fill="#F3FFFF" p-id="1427"></path></svg>